<?xml version="1.0" encoding="utf-8"?>
<!-- Generator: Adobe Illustrator 26.0.1, SVG Export Plug-In . SVG Version: 6.00 Build 0)  -->
<svg version="1.1" id="Layer_1" xmlns="http://www.w3.org/2000/svg" xmlns:xlink="http://www.w3.org/1999/xlink" x="0px" y="0px"
	 viewBox="0 0 271.2 47" style="enable-background:new 0 0 271.2 47;" xml:space="preserve">
<style type="text/css">
	.st0{fill:url(#SVGID_1_);}
	.st1{fill:url(#SVGID_00000008840335246643206880000013210834412494491305_);}
	.st2{fill:#0C1175;}
	.st3{fill:#6900FF;}
	.st4{fill:#009EFF;}
	.st5{fill:#3A3A3A;}
	.st6{fill:#FF0000;}
</style>
<g>
	<g>
		<g>
			<path class="st6" d="M167,1.8c0.7,0.2,1.3,0.3,1.9,0.5c0.1,0,0.3,0.1,0.5,0.3c-1.3,7.4,3.3,11.7,8.4,15.8
				c-2.9,1.3-5.8,2.5-8.6,3.8c-3,1.3-5.1,3.6-6.3,6.8c-0.9-0.2-1.7-0.5-2.6-0.7c1.6-2.8,3.5-5.1,6.1-6.7c2.5-1.6,5.2-2.6,8-4
				C169.1,13.6,165.5,8.9,167,1.8z"/>
			<path class="st6" d="M162.9,29.1l-3.1-0.8l0.1-0.3c1.7-3,3.7-5.3,6.1-6.8c1.7-1.1,3.5-1.9,5.5-2.8c0.7-0.3,1.5-0.7,2.2-1
				c-6.1-4.7-8.3-9.5-7-15.7l0-0.2l0.8,0.2c0.5,0.1,0.9,0.2,1.3,0.3c0.1,0,0.2,0.1,0.3,0.2c0.1,0,0.1,0.1,0.2,0.1l0.2,0.1l0,0.2
				c-1.3,7.2,3.2,11.5,8.3,15.6l0.3,0.2l-0.3,0.2c-0.9,0.4-1.8,0.8-2.6,1.1c-2.1,0.9-4,1.7-6,2.6c-2.9,1.3-5,3.5-6.2,6.6L162.9,29.1
				z M160.5,28l2.1,0.6c1.3-3.1,3.4-5.4,6.4-6.7c2-0.9,3.9-1.7,6-2.6c0.8-0.3,1.5-0.7,2.3-1c-5.1-4.1-9.4-8.5-8.2-15.6
				c0,0-0.1,0-0.1-0.1c-0.1-0.1-0.2-0.1-0.2-0.1c-0.4-0.1-0.8-0.2-1.3-0.3L167.1,2c-1.1,6,1.1,10.7,7.2,15.2l0.3,0.2l-0.3,0.2
				c-0.9,0.4-1.7,0.8-2.6,1.2c-1.9,0.9-3.7,1.7-5.4,2.8C164,23.1,162.1,25.2,160.5,28z"/>
		</g>
		<g>
			<path class="st6" d="M132.9,31.5c-0.5-0.7-0.9-1.3-1.4-1.9c5.7-5,4.8-11.3,3.4-17.7c3.2,0.8,6.2,1.6,9.3,2.3
				c2.5,0.6,5,0.4,7.4-0.6c2-0.8,2-0.8,3.2,1.3c-5.9,2.6-11.7,1.9-17.9-0.6C138.7,20.8,138.5,26.7,132.9,31.5z"/>
			<path class="st6" d="M132.9,31.8l-1.7-2.3l0.2-0.1c5.5-4.9,4.7-11,3.3-17.4l-0.1-0.4l0.4,0.1c1,0.2,1.9,0.5,2.8,0.7
				c2.2,0.5,4.3,1.1,6.4,1.5c2.4,0.6,4.9,0.4,7.2-0.6c2.1-0.9,2.3-0.7,3.5,1.4l0.1,0.2l-0.2,0.1c-5.4,2.4-11,2.2-17.6-0.4
				c2,7.7,0.7,12.9-4.1,17L132.9,31.8z M131.8,29.6l1.1,1.5c4.6-4,5.8-9.2,3.7-16.8l-0.1-0.5l0.4,0.2c6.6,2.7,12.2,2.9,17.4,0.7
				c-1-1.7-1.1-1.7-2.8-1c-2.4,1-5,1.2-7.5,0.6c-2.1-0.5-4.2-1-6.4-1.5c-0.8-0.2-1.6-0.4-2.5-0.6C136.6,18.6,137.3,24.7,131.8,29.6z
				"/>
		</g>
		<g>
			<path class="st6" d="M147.7,20.1c0.6,6.6-2.1,11.7-6.3,16.6c6.8,0.5,12.4,2.5,15.2,9.2c-0.7,0.3-1.4,0.5-2.3,0.8
				c-3-7.1-9.4-8-16-8.9c1.4-1.9,2.7-3.6,4-5.4c2.1-3.2,3.7-6.5,3.1-10.5C145.2,20.4,146.7,20.8,147.7,20.1z"/>
			<path class="st6" d="M154.2,47l-0.1-0.2c-3-7.1-9.5-7.9-15.8-8.7l-0.4,0l0.2-0.3c0.4-0.6,0.9-1.2,1.3-1.8
				c0.9-1.3,1.8-2.4,2.7-3.7c1.9-2.8,3.7-6.2,3.1-10.4c-0.2-1.2,0.7-1.4,1.4-1.6c0.4-0.1,0.7-0.2,1-0.4l0.3-0.2l0,0.4
				c0.5,5.8-1.4,10.9-6,16.4c5.4,0.4,11.8,1.9,14.9,9.3l0.1,0.2L154.2,47z M138.8,37.7c6,0.7,12.6,1.7,15.7,8.8l1.8-0.6
				c-2.4-5.6-7-8.3-14.9-8.8l-0.5,0l0.3-0.3c4.7-5.4,6.6-10.4,6.3-16.1c-0.3,0.1-0.6,0.2-0.8,0.3c-0.8,0.2-1.2,0.3-1.1,1.1
				c0.7,4.3-1.2,7.8-3.2,10.7c-0.8,1.2-1.7,2.4-2.7,3.7C139.5,36.7,139.1,37.2,138.8,37.7z"/>
		</g>
		<g>
			<path class="st6" d="M162.4,19.6c-4.5-4.7-5.8-10.3-5.4-16.8c-5.7,3.8-11.4,5.5-17.7,1.9c0.5-0.7,0.9-1.3,1.3-2
				c3,1.6,6.2,2.3,9.4,1.4c3-0.9,5.9-2.4,8.8-3.7c0.4,5.9-0.5,12.4,5.1,17.1C163.4,18.1,163,18.8,162.4,19.6z"/>
			<path class="st6" d="M162.5,20l-0.2-0.2c-4-4.3-5.8-9.6-5.5-16.6c-6.6,4.3-12,4.8-17.6,1.7l-0.2-0.1l1.6-2.4l0.2,0.1
				c3.3,1.8,6.3,2.2,9.2,1.3c2.1-0.6,4.1-1.6,6.1-2.5c0.9-0.4,1.8-0.8,2.7-1.2L159,0l0,0.3c0.1,1,0.1,2.1,0.1,3.1
				c0.2,4.9,0.3,10,4.9,13.9l0.2,0.1L162.5,20z M157.2,2.3l0,0.5c-0.4,7,1.3,12.2,5.2,16.5l1.2-1.7c-4.5-4-4.7-9.1-4.9-14.1
				c0-0.9-0.1-1.8-0.1-2.8c-0.8,0.4-1.6,0.7-2.4,1.1c-2,0.9-4,1.9-6.1,2.5c-2.9,0.9-6,0.5-9.3-1.3l-1.1,1.6
				c5.5,2.9,10.8,2.3,17.3-2.1L157.2,2.3z"/>
		</g>
		<g>
			<path class="st6" d="M164.6,43.1c-3.9-5.1-6.7-11-13.8-11.9c0-0.5-0.1-0.8-0.1-1.1c0-0.4,0-0.8,0.1-1.4
				c6.4,1.5,10.5,5.6,13.8,11.2c2.6-6.3,6.5-10.7,13.7-11.1c0,0.4,0.1,0.8,0.1,1.2c0,0.4,0,0.8-0.1,1.3
				C170.6,31.5,167.5,37.1,164.6,43.1z"/>
			<path class="st6" d="M164.6,43.5l-0.2-0.3c-0.7-0.9-1.3-1.8-1.9-2.6c-3.1-4.3-6-8.4-11.7-9.2l-0.2,0l0-0.2c0-0.1,0-0.3,0-0.4
				c0-0.3-0.1-0.5-0.1-0.7c0-0.3,0-0.5,0-0.9c0-0.2,0-0.3,0-0.5l0-0.3l0.3,0.1c5.6,1.3,9.8,4.6,13.7,10.9
				c3.1-7.2,7.3-10.5,13.7-10.9l0.2,0l0,0.2c0,0.1,0,0.2,0,0.4c0,0.3,0.1,0.6,0.1,0.8c0,0.3,0,0.5,0,0.9c0,0.1,0,0.3,0,0.4l0,0.2
				l-0.2,0c-7.4,0.4-10.5,5.6-13.5,11.8L164.6,43.5z M151,31c5.9,0.8,8.8,5,11.9,9.3c0.5,0.8,1.1,1.6,1.7,2.3
				c3-6.2,6.2-11.2,13.5-11.7c0-0.1,0-0.2,0-0.2c0-0.3,0-0.6,0-0.8c0-0.3,0-0.5-0.1-0.8c0-0.1,0-0.1,0-0.2
				c-6.2,0.4-10.3,3.8-13.3,11l-0.2,0.4l-0.2-0.4c-3.8-6.3-7.9-9.7-13.4-11c0,0.1,0,0.2,0,0.3c0,0.3,0,0.6,0,0.8
				c0,0.2,0,0.4,0.1,0.7C151,30.8,151,30.9,151,31z"/>
		</g>
	</g>
	<g>
		<g>
			<path d="M16.7,25.2c0.7,0.9,1,1.9,1,3.1c0,1.8-0.6,3.2-1.8,4.2c-1.2,1-2.9,1.5-5.1,1.5H0V13.3h10.5c2.1,0,3.7,0.5,4.9,1.4
				c1.2,0.9,1.8,2.2,1.8,4c0,1.2-0.3,2.2-0.9,3c-0.6,0.8-1.5,1.4-2.5,1.6C15,23.7,16,24.3,16.7,25.2z M6.5,21.4h2.5
				c0.6,0,1-0.1,1.3-0.3c0.3-0.2,0.4-0.6,0.4-1.1c0-0.5-0.1-0.9-0.4-1.1c-0.3-0.2-0.7-0.4-1.3-0.4H6.5V21.4z M10.7,28.4
				c0.3-0.2,0.4-0.6,0.4-1.1c0-1-0.6-1.5-1.7-1.5H6.5v2.9h2.9C10,28.7,10.4,28.6,10.7,28.4z"/>
			<path d="M34.3,33.9l-3.9-7.4v7.4H24V13.3h9.6c1.7,0,3.1,0.3,4.3,0.9c1.2,0.6,2.1,1.4,2.7,2.4c0.6,1,0.9,2.2,0.9,3.4
				c0,1.4-0.4,2.6-1.1,3.7c-0.8,1.1-1.9,1.8-3.3,2.3l4.5,7.9H34.3z M30.4,22.2H33c0.6,0,1.1-0.1,1.4-0.4c0.3-0.3,0.5-0.7,0.5-1.3
				c0-0.5-0.2-1-0.5-1.3c-0.3-0.3-0.8-0.5-1.4-0.5h-2.6V22.2z"/>
			<path d="M60.7,30.8h-6.9l-1,3.1h-6.8l7.5-20.6H61l7.5,20.6h-6.8L60.7,30.8z M59.2,26l-1.9-5.7L55.4,26H59.2z"/>
			<path d="M93.8,33.9h-6.5l-6.8-10.3v10.3h-6.5V13.3h6.5l6.8,10.5V13.3h6.5V33.9z"/>
			<path d="M118.8,28.9c-0.9,1.6-2.1,2.8-3.7,3.7c-1.6,0.9-3.5,1.4-5.7,1.4h-8.6V13.3h8.6c2.2,0,4,0.4,5.7,1.3
				c1.6,0.9,2.9,2.1,3.7,3.6c0.9,1.5,1.3,3.3,1.3,5.3C120.1,25.5,119.7,27.3,118.8,28.9z M112.3,27c0.9-0.8,1.3-1.9,1.3-3.4
				c0-1.5-0.4-2.6-1.3-3.4c-0.9-0.8-2-1.2-3.5-1.2h-1.5v9.2h1.5C110.3,28.2,111.4,27.8,112.3,27z"/>
		</g>
	</g>
	<g>
		<path d="M209.1,14.6c-1.9,0.2-2.5,0.5-2.6,1.8c0,0.9-0.1,2.2-0.1,4.9V33h-1.1L193,17.8V25c0,2.6,0.1,3.9,0.1,4.8
			c0.1,1.5,0.8,1.9,2.9,2.1v0.8h-7.1v-0.8c1.8-0.1,2.5-0.6,2.6-2c0.1-0.9,0.1-2.2,0.1-4.9v-7.4c0-0.8-0.1-1.3-0.6-1.9
			c-0.6-0.7-1.2-0.9-2.6-1v-0.8h4.4l12.3,14.6v-7.1c0-2.7-0.1-4-0.1-4.8c-0.1-1.3-0.8-1.7-3.1-1.9v-0.8h7.2V14.6z"/>
		<path d="M230.6,28.1c-0.2,0.8-1,3.7-1.2,4.6h-14.1v-0.8c2.7-0.2,2.9-0.5,2.9-2.8V17.6c0-2.6-0.3-2.7-2.5-2.9v-0.8h8.9
			c2.7,0,3.9,0,4.2-0.1c0,0.7,0.1,2.9,0.3,4.4l-0.9,0.1c-0.3-1-0.6-1.6-0.9-2.2c-0.5-1-1.1-1.2-2.9-1.2h-2.8c-0.9,0-1,0.1-1,0.9v6.4
			h3.2c2.2,0,2.3-0.4,2.7-2.4h0.9v6h-0.9c-0.4-2.1-0.6-2.4-2.7-2.4h-3.2v5.8c0,2,0.6,2.2,2.1,2.2h2.7c1.8,0,2.1-0.3,2.7-1
			c0.6-0.6,1.2-1.8,1.6-2.7L230.6,28.1z"/>
		<path d="M246.9,18.2c-0.5-1.9-1.3-3.8-4-3.8c-2.3,0-3.1,1.7-3.1,3.2c0,2,1.3,3,3.7,4.3c3.5,1.8,5,3.1,5,5.9c0,3.1-2.6,5.4-6.4,5.4
			c-1.7,0-3.3-0.5-4.4-1c-0.2-0.8-0.6-2.8-0.8-4.4l0.9-0.2c0.6,1.9,1.9,4.5,4.9,4.5c2.1,0,3.4-1.5,3.4-3.3c0-2.2-1.2-3.1-3.7-4.5
			c-3.1-1.7-4.8-3.1-4.8-5.8c0-2.6,2.2-5,6-5c1.6,0,3.2,0.4,3.8,0.6c0.1,1,0.2,2.2,0.5,4.1L246.9,18.2z"/>
		<path d="M270.3,18.4c-0.3-0.9-0.6-1.9-0.9-2.4c-0.5-0.8-0.8-1-2.4-1h-2.9v14.2c0,2.3,0.2,2.6,3,2.8v0.8h-8.5v-0.8
			c2.7-0.2,2.9-0.5,2.9-2.8V15h-2.6c-1.6,0-2.1,0.2-2.6,1c-0.3,0.6-0.6,1.3-1,2.4h-0.9c0.2-1.8,0.3-3.6,0.4-5.2h0.7
			c0.4,0.7,0.8,0.7,1.6,0.7h11.5c0.8,0,1-0.1,1.5-0.7h0.7c0,1.4,0.1,3.5,0.3,5.1L270.3,18.4z"/>
	</g>
</g>
</svg>
